<?xml version="1.0" standalone="no"?>
<!DOCTYPE svg PUBLIC "-//W3C//DTD SVG 20010904//EN"
 "http://www.w3.org/TR/2001/REC-SVG-20010904/DTD/svg10.dtd">
<svg version="1.0" xmlns="http://www.w3.org/2000/svg"
 width="260.000000pt" height="260.000000pt" viewBox="0 0 260.000000 260.000000"
 preserveAspectRatio="xMidYMid meet">
<metadata>
Created by potrace 1.11, written by Peter Selinger 2001-2013
</metadata>
<g transform="translate(0.000000,260.000000) scale(0.100000,-0.100000)"
fill="#000000" stroke="none">
<path d="M1048 2561 c-292 -64 -517 -194 -715 -413 -150 -167 -253 -384 -299
-624 -25 -136 -16 -405 19 -536 65 -246 170 -429 344 -601 172 -170 345 -268
591 -335 91 -24 111 -26 312 -26 201 0 221 2 312 26 246 67 419 165 591 335
173 171 277 352 345 601 24 91 26 111 26 312 0 201 -2 221 -26 312 -67 246
-165 419 -335 591 -171 174 -355 279 -601 344 -85 23 -121 26 -287 29 -158 3
-205 0 -277 -15z"/>
</g>
</svg>
